<svg id="Fitbit_Ionic" data-name="Fitbit Ionic" xmlns="http://www.w3.org/2000/svg" viewBox="0 0 893.63 164"><defs><style>.cls-1{fill:#fff;}</style></defs><title>fitbit_developer_lockup_White_RGB_OL</title><path class="cls-1" d="M184.93,103.07a46.59,46.59,0,0,1,3-16.65,40.78,40.78,0,0,1,8.53-13.69,39.38,39.38,0,0,1,13.2-9.27,40.57,40.57,0,0,1,16.15-3.2,31,31,0,0,1,8,1.05,42.42,42.42,0,0,1,7.46,2.75,34.29,34.29,0,0,1,6.56,4.13,34.92,34.92,0,0,1,5.17,5h.66V21.07h12.79V142.92H253.65v-10H253a33.32,33.32,0,0,1-11.73,9.23,34.33,34.33,0,0,1-15.5,3.72,40.57,40.57,0,0,1-16.15-3.2,39.35,39.35,0,0,1-13.2-9.27,40.75,40.75,0,0,1-8.53-13.69A46.58,46.58,0,0,1,184.93,103.07Zm13,0a34.54,34.54,0,0,0,2.05,12.12,28,28,0,0,0,5.74,9.48,26,26,0,0,0,8.86,6.18,29.48,29.48,0,0,0,22.47,0,26.91,26.91,0,0,0,8.94-6.18,28.38,28.38,0,0,0,5.9-9.48A33.42,33.42,0,0,0,254,103.07a32.94,32.94,0,0,0-2.13-12,29.37,29.37,0,0,0-5.9-9.57A26.38,26.38,0,0,0,237,75.29a29.45,29.45,0,0,0-22.47,0,25.51,25.51,0,0,0-8.86,6.27,29,29,0,0,0-5.74,9.57A34,34,0,0,0,197.88,103.07Z" transform="translate(0 -21.07)"/><path class="cls-1" d="M397,142.92,363,63.06h14.1l26.24,62,26.24-62h14.1l-33.95,79.87Z" transform="translate(0 -21.07)"/><path class="cls-1" d="M554,21.07V142.92H541V21.07Z" transform="translate(0 -21.07)"/><path class="cls-1" d="M610.41,145.88A40.55,40.55,0,0,1,572.19,120a47.56,47.56,0,0,1,0-33.87,41,41,0,0,1,76.42,0,47.57,47.57,0,0,1,0,33.87,40.57,40.57,0,0,1-38.21,25.83Zm0-72.65A28.64,28.64,0,0,0,599,75.44a26.37,26.37,0,0,0-8.94,6.23,29.09,29.09,0,0,0-5.9,9.51A32.58,32.58,0,0,0,582,103.07a33,33,0,0,0,2.13,12.05,28.12,28.12,0,0,0,5.9,9.43,26.92,26.92,0,0,0,8.94,6.15,30.24,30.24,0,0,0,22.71,0,26.75,26.75,0,0,0,9-6.15,28.21,28.21,0,0,0,5.9-9.43,33.09,33.09,0,0,0,2.13-12.05,32.64,32.64,0,0,0-2.13-11.89,29.19,29.19,0,0,0-5.9-9.51,26.21,26.21,0,0,0-9-6.23A28.83,28.83,0,0,0,610.41,73.22Z" transform="translate(0 -21.07)"/><path class="cls-1" d="M736.68,72.73a39.77,39.77,0,0,1,8.45,13.69,49.71,49.71,0,0,1,0,33.29,39.74,39.74,0,0,1-8.45,13.69,39.18,39.18,0,0,1-13.28,9.27,40.76,40.76,0,0,1-16.07,3.2,34.28,34.28,0,0,1-15.66-3.77,33.35,33.35,0,0,1-11.73-9.35h-.49v52.32h-13v-122h13V73.39h.49a35.12,35.12,0,0,1,11.73-9.27,33.68,33.68,0,0,1,15.66-3.85,40.76,40.76,0,0,1,16.07,3.2A39.21,39.21,0,0,1,736.68,72.73Zm-29.36,60.19a27.65,27.65,0,0,0,11.15-2.21,26.27,26.27,0,0,0,8.77-6.15,27.83,27.83,0,0,0,5.74-9.43A34.23,34.23,0,0,0,735,103.07,33.77,33.77,0,0,0,733,91.18a28.79,28.79,0,0,0-5.74-9.51,25.74,25.74,0,0,0-8.77-6.23,27.65,27.65,0,0,0-11.15-2.21,28.64,28.64,0,0,0-11.4,2.21,25.53,25.53,0,0,0-8.86,6.23,29.86,29.86,0,0,0-5.82,9.51,32.56,32.56,0,0,0-2.13,11.89,33,33,0,0,0,2.13,12.05,28.84,28.84,0,0,0,5.82,9.43,26,26,0,0,0,8.86,6.15A28.64,28.64,0,0,0,707.33,132.92Z" transform="translate(0 -21.07)"/><path class="cls-1" d="M865.75,132.76v10.17h-13V63.06h13V73.39h.49a25.16,25.16,0,0,1,10.17-7.87,32.93,32.93,0,0,1,12.79-2.46h4.43V76h-5.9a24.78,24.78,0,0,0-8.61,1.48,19,19,0,0,0-7,4.43,21,21,0,0,0-4.67,7.46,30.13,30.13,0,0,0-1.72,10.74Z" transform="translate(0 -21.07)"/><path class="cls-1" d="M79.92,40.58A10.81,10.81,0,1,1,69.11,29.77,10.81,10.81,0,0,1,79.92,40.58ZM69.11,59.93A11.24,11.24,0,1,0,80.35,71.17,11.24,11.24,0,0,0,69.11,59.93Zm0,30.17a11.68,11.68,0,1,0,11.68,11.68A11.68,11.68,0,0,0,69.11,90.09Zm0,31a11.24,11.24,0,1,0,11.24,11.24A11.24,11.24,0,0,0,69.11,121.12Zm0,31A10.81,10.81,0,1,0,79.92,163,10.81,10.81,0,0,0,69.11,152.15ZM98.88,58.49a12.68,12.68,0,1,0,12.68,12.68A12.68,12.68,0,0,0,98.88,58.49Zm0,30.17A13.12,13.12,0,1,0,112,101.77,13.12,13.12,0,0,0,98.88,88.65Zm0,31a12.68,12.68,0,1,0,12.68,12.68A12.68,12.68,0,0,0,98.88,119.68Zm30.56-32.47A14.56,14.56,0,1,0,144,101.77,14.56,14.56,0,0,0,129.44,87.21ZM39,61.37a9.8,9.8,0,1,0,9.8,9.8A9.8,9.8,0,0,0,39,61.37Zm0,30.17a10.23,10.23,0,1,0,10.23,10.23A10.23,10.23,0,0,0,39,91.53Zm0,31a9.8,9.8,0,1,0,9.8,9.8A9.8,9.8,0,0,0,39,122.56ZM8.79,93a8.79,8.79,0,1,0,8.79,8.79A8.79,8.79,0,0,0,8.79,93Z" transform="translate(0 -21.07)"/><path class="cls-1" d="M800.07,60.32a39,39,0,0,0-28.94,12.43c-7.29,7.86-11.3,18.63-11.3,30.32,0,24.37,17.77,42.75,41.34,42.75A40.39,40.39,0,0,0,834.5,129l-10.25-7.9a27.41,27.41,0,0,1-23.06,11.72C786,132.87,774.68,122.23,773,107h64.38q.2-1.85.31-3.75c.68-12.48-3.09-23.74-10.64-31.71A36.64,36.64,0,0,0,800.07,60.32ZM773.9,94.1c3.24-12.46,13.26-20.82,26.18-20.82a23.51,23.51,0,0,1,17.57,7.21,26.49,26.49,0,0,1,6.61,13.61Z" transform="translate(0 -21.07)"/><path class="cls-1" d="M486.77,60.32a39,39,0,0,0-28.94,12.43c-7.29,7.86-11.3,18.63-11.3,30.32,0,24.37,17.77,42.75,41.34,42.75A40.39,40.39,0,0,0,521.2,129l-10.25-7.9a27.41,27.41,0,0,1-23.06,11.72c-15.16,0-26.51-10.64-28.19-25.83h64.38q.2-1.85.31-3.75c.68-12.48-3.09-23.74-10.64-31.71A36.64,36.64,0,0,0,486.77,60.32ZM460.59,94.1c3.24-12.46,13.26-20.82,26.18-20.82a23.51,23.51,0,0,1,17.57,7.21A26.49,26.49,0,0,1,511,94.1Z" transform="translate(0 -21.07)"/><path class="cls-1" d="M321.63,60.32a39,39,0,0,0-28.94,12.43c-7.29,7.86-11.3,18.63-11.3,30.32,0,24.37,17.77,42.75,41.34,42.75A40.39,40.39,0,0,0,356.05,129l-10.25-7.9a27.41,27.41,0,0,1-23.06,11.72c-15.16,0-26.51-10.64-28.19-25.83h64.38q.2-1.85.31-3.75c.68-12.48-3.09-23.74-10.64-31.71A36.64,36.64,0,0,0,321.63,60.32ZM295.45,94.1c3.24-12.46,13.26-20.82,26.18-20.82a23.51,23.51,0,0,1,17.57,7.21A26.49,26.49,0,0,1,345.8,94.1Z" transform="translate(0 -21.07)"/></svg>